<?xml version="1.0" encoding="UTF-8"?>
<svg xmlns="http://www.w3.org/2000/svg" xmlns:xlink="http://www.w3.org/1999/xlink" viewBox="0 0 384 384" width="384px" height="384px">
<g id="surface47244272">
<path style=" stroke:none;fill-rule:nonzero;fill:rgb(0%,68.235296%,100%);fill-opacity:1;" d="M 48 80 L 48 304 C 48 321.679688 62.320312 336 80 336 L 304 336 C 321.679688 336 336 321.679688 336 304 L 336 80 C 336 62.320312 321.679688 48 304 48 L 80 48 C 62.320312 48 48 62.320312 48 80 Z M 218.65625 199.214844 L 184.769531 199.214844 L 184.769531 304 L 157.457031 304 L 157.457031 199.214844 L 124.273438 199.214844 L 124.273438 176 L 218.65625 176 Z M 223.96875 298.015625 L 223.96875 270 C 223.96875 270 239.265625 281.535156 257.632812 281.535156 C 276 281.535156 275.28125 269.535156 275.28125 267.886719 C 275.28125 250.464844 223.265625 250.464844 223.265625 211.871094 C 223.265625 159.375 299.054688 180.097656 299.054688 180.097656 L 298.113281 205.039062 C 298.113281 205.039062 285.40625 196.558594 271.039062 196.558594 C 256.6875 196.558594 251.503906 203.390625 251.503906 210.6875 C 251.503906 229.519531 304 227.632812 304 265.535156 C 304 323.902344 223.96875 298.015625 223.96875 298.015625 Z M 223.96875 298.015625 "/>
</g>
</svg>
